<svg id="Logo_copy" data-name="Logo copy" xmlns="http://www.w3.org/2000/svg" viewBox="0 0 331 336.99"><defs><style>.cls-1{fill:#fff;}.cls-2{fill:#f1f2f2;}</style></defs><path class="cls-1" d="M390.65,510.07v68.37a11,11,0,0,1-11,11l-11.28,0L332,589.34a11,11,0,0,1-11-11V545.55a121,121,0,0,0-109-120.42,11,11,0,0,1-10-10.94V368.9a11,11,0,0,1,11-11h25.37a151.46,151.46,0,0,1,82.59,24.34,153,153,0,0,1,43.28,42.29A151.45,151.45,0,0,1,390.65,510.07Z" transform="translate(-132.14 -252.45)"/><rect class="cls-1" width="69.97" height="105.45" rx="11"/><path class="cls-2" d="M463.14,368.9v44.63a11,11,0,0,1-11,11H364.35a153,153,0,0,0-43.28-42.29,151.46,151.46,0,0,0-82.59-24.34H452.14A11,11,0,0,1,463.14,368.9Z" transform="translate(-132.14 -252.45)"/></svg>